<svg xmlns="http://www.w3.org/2000/svg" aria-hidden="true" style="width:0;height:0;position:absolute;overflow:hidden"><defs><symbol id="icon-burger-menu" viewBox="0 0 31 32"><path stroke-linecap="round" stroke-linejoin="round" stroke-width="1.939" d="M27.151 13.414H3.878m23.273-5.172H3.878m23.273 10.344H3.878m23.273 5.172H3.878"/></symbol><symbol id="icon-x" viewBox="0 0 32 32"><path fill="none" stroke="#f8f8f8" style="stroke:var(--color1,#f8f8f8)" stroke-linejoin="round" stroke-linecap="round" stroke-width="2" d="M24 8 8 24M8 8l16 16"/></symbol><symbol id="icon-black-x" viewBox="0 0 32 32"><path stroke-linejoin="round" stroke-linecap="round" stroke-width="2.88" d="M24 8 8 24M8 8l16 16"/></symbol><symbol id="icon-Star" viewBox="0 0 34 32"><path d="M14.89 2.282c.738-2.267 3.946-2.267 4.682 0l2.08 6.4a2.466 2.466 0 0 0 2.341 1.703h6.732c2.385 0 3.375 3.052 1.447 4.453l-5.447 3.956a2.461 2.461 0 0 0-.888 2.769l-.005-.017 2.08 6.402c.738 2.267-1.858 4.155-3.788 2.752l-5.445-3.956c-.401-.294-.903-.471-1.447-.471s-1.047.176-1.454.475l.007-.005-5.445 3.956c-1.93 1.403-4.524-.485-3.788-2.752l2.08-6.4a2.459 2.459 0 0 0-.887-2.75l-.007-.005-5.447-3.956c-1.927-1.403-.935-4.455 1.447-4.455h6.732A2.463 2.463 0 0 0 12.803 8.7l.005-.017 2.082-6.4z"/></symbol><symbol id="icon-basket" viewBox="0 0 31 32"><path stroke-linejoin="round" stroke-linecap="round" stroke-width="1.92" d="M6.4 18.56h16.814c1.297 0 1.946 0 2.46-.242.46-.219.834-.556 1.092-.972l.006-.011c.297-.486.369-1.13.512-2.419l.749-6.739c.045-.393.067-.589.003-.742a.644.644 0 0 0-.278-.313l-.003-.002c-.145-.079-.342-.079-.739-.079H5.76M2.56 3.2h1.597c.339 0 .508 0 .64.064a.644.644 0 0 1 .276.258l.002.003c.073.128.083.297.105.635l1.16 18.56c.022.338.032.507.105.635a.637.637 0 0 0 .273.259l.004.002c.133.064.302.064.64.064h16.959M9.6 28.16h.013m11.507 0h.013m-10.893 0a.64.64 0 0 1-1.28 0 .64.64 0 0 1 1.28 0zm11.52 0a.64.64 0 0 1-1.28 0 .64.64 0 0 1 1.28 0z"/></symbol><symbol id="ellipse" viewBox="0 0 32 32"><path d="M31.04 16c0 8.306-6.734 15.04-15.04 15.04S.96 24.306.96 16 7.694.96 16 .96 31.04 7.694 31.04 16z"/></symbol><symbol id="rectangle" viewBox="0 0 74 32"><path d="M16 0h41.6c8.837 0 16 7.163 16 16s-7.163 16-16 16H16C7.163 32 0 24.837 0 16S7.163 0 16 0z"/><path d="M31.04 16c0 8.306-6.734 15.04-15.04 15.04S.96 24.306.96 16 7.694.96 16 .96 31.04 7.694 31.04 16z"/><symbol id="card-heart" viewBox="0 0 22 20"><path stroke="#F8F8F8" stroke-linecap="round" stroke-linejoin="round" stroke-width="2" d="M19.103 3.226a5.042 5.042 0 0 0-7.131 0L11 4.197l-.972-.971a5.043 5.043 0 0 0-7.131 7.132l.971.971L11 18.461l7.132-7.132.971-.972a5.042 5.042 0 0 0 0-7.131v0Z" opacity=".5"/></symbol><symbol id="icon-star" viewBox="0 0 32 32"><path d="M15.528.894a.533.533 0 0 1 .943 0l3.318 6.289a.537.537 0 0 0 .381.277l7.007 1.212c.422.073.59.59.292.897l-4.956 5.099a.532.532 0 0 0-.145.448l1.012 7.039a.533.533 0 0 1-.763.554l-6.381-3.138a.534.534 0 0 0-.471 0l-6.381 3.138a.533.533 0 0 1-.763-.554l1.012-7.038a.533.533 0 0 0-.145-.448L4.532 9.57a.533.533 0 0 1 .292-.897l7.007-1.212a.531.531 0 0 0 .381-.277L15.53.895z"/></symbol><symbol id="icon-close-black" viewBox="0 0 32 32"><path d="M32 3.224 28.776 0 16 12.776 3.224 0 0 3.224 12.776 16 0 28.776 3.224 32 16 19.224 28.776 32 32 28.776 19.224 16 32 3.224z"/></symbol></symbol></defs></svg>