<svg xmlns="http://www.w3.org/2000/svg" aria-hidden="true" style="width:0;height:0;position:absolute;overflow:hidden"><defs><symbol id="icon-burger-menu" viewBox="0 0 31 32"><path stroke-linecap="round" stroke-linejoin="round" stroke-width="1.939" d="M27.151 13.414H3.878m23.273-5.172H3.878m23.273 10.344H3.878m23.273 5.172H3.878"/></symbol><symbol id="icon-x" viewBox="0 0 32 32"><path fill="none" stroke="#f8f8f8" style="stroke:var(--color1,#f8f8f8)" stroke-linejoin="round" stroke-linecap="round" stroke-width="2" d="M24 8 8 24M8 8l16 16"/></symbol><symbol id="icon-basket" viewBox="0 0 31 32"><path stroke-linejoin="round" stroke-linecap="round" stroke-width="1.92" d="M6.4 18.56h16.814c1.297 0 1.946 0 2.46-.242.46-.219.834-.556 1.092-.972l.006-.011c.297-.486.369-1.13.512-2.419l.749-6.739c.045-.393.067-.589.003-.742a.644.644 0 0 0-.278-.313l-.003-.002c-.145-.079-.342-.079-.739-.079H5.76M2.56 3.2h1.597c.339 0 .508 0 .64.064a.644.644 0 0 1 .276.258l.002.003c.073.128.083.297.105.635l1.16 18.56c.022.338.032.507.105.635a.637.637 0 0 0 .273.259l.004.002c.133.064.302.064.64.064h16.959M9.6 28.16h.013m11.507 0h.013m-10.893 0a.64.64 0 0 1-1.28 0 .64.64 0 0 1 1.28 0zm11.52 0a.64.64 0 0 1-1.28 0 .64.64 0 0 1 1.28 0z"/></symbol><symbol id="icon-star" viewBox="0 0 34 32"><path d="M14.89 2.282c.737-2.268 3.945-2.268 4.682 0l2.08 6.402a2.463 2.463 0 0 0 2.341 1.701h6.731c2.384 0 3.376 3.051 1.447 4.453l-5.446 3.957a2.46 2.46 0 0 0-.894 2.752l2.08 6.402c.737 2.268-1.859 4.154-3.788 2.752l-5.446-3.957a2.461 2.461 0 0 0-2.894 0l-5.446 3.957c-1.929 1.402-4.525-.484-3.788-2.752l2.08-6.402a2.46 2.46 0 0 0-.894-2.752l-5.446-3.957c-1.929-1.402-.938-4.453 1.447-4.453h6.731a2.462 2.462 0 0 0 2.341-1.701l2.08-6.402z"/></symbol><symbol id="icon-strip" viewBox="0 0 4720 32"><path stroke-width="16" d="M0 16h4720"/></symbol><symbol id="icon-basket" viewBox="0 0 31 32"><path stroke-linejoin="round" stroke-linecap="round" stroke-width="1.92" d="M6.4 18.56h16.814c1.297 0 1.946 0 2.46-.242.46-.219.834-.556 1.092-.972l.006-.011c.297-.486.369-1.13.512-2.419l.749-6.739c.045-.393.067-.589.003-.742a.644.644 0 0 0-.278-.313l-.003-.002c-.145-.079-.342-.079-.739-.079H5.76M2.56 3.2h1.597c.339 0 .508 0 .64.064a.644.644 0 0 1 .276.258l.002.003c.073.128.083.297.105.635l1.16 18.56c.022.338.032.507.105.635a.637.637 0 0 0 .273.259l.004.002c.133.064.302.064.64.064h16.959M9.6 28.16h.013m11.507 0h.013m-10.893 0a.64.64 0 0 1-1.28 0 .64.64 0 0 1 1.28 0zm11.52 0a.64.64 0 0 1-1.28 0 .64.64 0 0 1 1.28 0z"/></symbol><symbol id="ellipse" viewBox="0 0 32 32"><path d="M31.04 16c0 8.306-6.734 15.04-15.04 15.04S.96 24.306.96 16 7.694.96 16 .96 31.04 7.694 31.04 16z"/></symbol><symbol id="rectangle" viewBox="0 0 74 32"><path d="M16 0h41.6c8.837 0 16 7.163 16 16s-7.163 16-16 16H16C7.163 32 0 24.837 0 16S7.163 0 16 0z"/><path d="M31.04 16c0 8.306-6.734 15.04-15.04 15.04S.96 24.306.96 16 7.694.96 16 .96 31.04 7.694 31.04 16z"/></symbol></defs></svg>