<svg xmlns="http://www.w3.org/2000/svg" aria-hidden="true" style="width:0;height:0;position:absolute;overflow:hidden"><defs><symbol id="icon-burger-menu" viewBox="0 0 31 32"><path stroke-linecap="round" stroke-linejoin="round" stroke-width="1.939" d="M27.151 13.414H3.878m23.273-5.172H3.878m23.273 10.344H3.878m23.273 5.172H3.878"/></symbol><symbol id="icon-x" viewBox="0 0 32 32"><path fill="none" stroke="#f8f8f8" style="stroke:var(--color1,#f8f8f8)" stroke-linejoin="round" stroke-linecap="round" stroke-width="2" d="M24 8 8 24M8 8l16 16"/></symbol><symbol id="icon-basket" viewBox="0 0 31 32"><path stroke-linejoin="round" stroke-linecap="round" stroke-width="1.92" d="M6.4 18.56h16.814c1.297 0 1.946 0 2.46-.242.46-.219.834-.556 1.092-.972l.006-.011c.297-.486.369-1.13.512-2.419l.749-6.739c.045-.393.067-.589.003-.742a.644.644 0 0 0-.278-.313l-.003-.002c-.145-.079-.342-.079-.739-.079H5.76M2.56 3.2h1.597c.339 0 .508 0 .64.064a.644.644 0 0 1 .276.258l.002.003c.073.128.083.297.105.635l1.16 18.56c.022.338.032.507.105.635a.637.637 0 0 0 .273.259l.004.002c.133.064.302.064.64.064h16.959M9.6 28.16h.013m11.507 0h.013m-10.893 0a.64.64 0 0 1-1.28 0 .64.64 0 0 1 1.28 0zm11.52 0a.64.64 0 0 1-1.28 0 .64.64 0 0 1 1.28 0z"/></symbol><symbol id="ellipse" viewBox="0 0 32 32"><path d="M31.04 16c0 8.306-6.734 15.04-15.04 15.04S.96 24.306.96 16 7.694.96 16 .96 31.04 7.694 31.04 16z"/></symbol><symbol id="rectangle" viewBox="0 0 74 32"><path d="M16 0h41.6c8.837 0 16 7.163 16 16s-7.163 16-16 16H16C7.163 32 0 24.837 0 16S7.163 0 16 0z"/><path d="M31.04 16c0 8.306-6.734 15.04-15.04 15.04S.96 24.306.96 16 7.694.96 16 .96 31.04 7.694 31.04 16z"/></symbol></defs></svg>