<svg xmlns="http://www.w3.org/2000/svg" aria-hidden="true" style="position:absolute;width:0;height:0;overflow:hidden">
  <defs>
    <symbol id="icon-burger-menu" viewBox="0 0 31 32">
      <path stroke-linecap="round" stroke-linejoin="round" stroke-width="1.939"
        d="M27.151 13.414H3.878M27.151 8.242H3.878M27.151 18.586H3.878M27.151 23.758H3.878" />
    </symbol>

    <symbol id="icon-x" viewBox="0 0 32 32">
      <path fill="none" stroke="#f8f8f8" style="stroke: var(--color1, #f8f8f8)" stroke-linejoin="round"
        stroke-linecap="round" stroke-miterlimit="4" stroke-width="2" d="M24 8l-16 16M8 8l16 16"></path>
    </symbol>
    <symbol id="icon-black-x" viewBox="0 0 32 32">
      <path stroke-linejoin="round" stroke-linecap="round" stroke-miterlimit="4" stroke-width="2.88" d="M24 8l-16 16">
      </path>
      <path stroke-linejoin="round" stroke-linecap="round" stroke-miterlimit="4" stroke-width="2.88" d="M8 8l16 16">
      </path>
    </symbol>
      <symbol id="icon-Star" viewBox="0 0 34 32">
      <path
        d="M14.89 2.282c0.738-2.267 3.946-2.267 4.682 0l2.080 6.4c0.33 0.997 1.253 1.703 2.341 1.703h6.732c2.385 0 3.375 3.052 1.447 4.453l-5.447 3.956c-0.618 0.453-1.014 1.176-1.014 1.991 0 0.272 0.044 0.534 0.126 0.778l-0.005-0.017 2.080 6.402c0.738 2.267-1.858 4.155-3.788 2.752l-5.445-3.956c-0.401-0.294-0.903-0.471-1.447-0.471s-1.047 0.176-1.454 0.475l0.007-0.005-5.445 3.956c-1.93 1.403-4.524-0.485-3.788-2.752l2.080-6.4c0.077-0.228 0.121-0.49 0.121-0.763 0-0.816-0.397-1.539-1.008-1.987l-0.007-0.005-5.447-3.956c-1.927-1.403-0.935-4.455 1.447-4.455h6.732c1.086-0.001 2.007-0.705 2.333-1.681l0.005-0.017 2.082-6.4z">
      </path>
    </symbol>

    <symbol id="icon-basket" viewBox="0 0 31 32">
      <path stroke-linejoin="round" stroke-linecap="round" stroke-miterlimit="4" stroke-width="1.92"
        d="M6.4 18.56h16.814c1.297 0 1.946 0 2.46-0.242 0.46-0.219 0.834-0.556 1.092-0.972l0.006-0.011c0.297-0.486 0.369-1.13 0.512-2.419l0.749-6.739c0.045-0.393 0.067-0.589 0.003-0.742-0.057-0.135-0.155-0.244-0.278-0.313l-0.003-0.002c-0.145-0.079-0.342-0.079-0.739-0.079h-21.256M2.56 3.2h1.597c0.339 0 0.508 0 0.64 0.064 0.118 0.058 0.213 0.148 0.276 0.258l0.002 0.003c0.073 0.128 0.083 0.297 0.105 0.635l1.16 18.56c0.022 0.338 0.032 0.507 0.105 0.635 0.064 0.113 0.159 0.203 0.273 0.259l0.004 0.002c0.133 0.064 0.302 0.064 0.64 0.064h16.959M9.6 28.16h0.013M21.12 28.16h0.013M10.24 28.16c0 0.353-0.287 0.64-0.64 0.64s-0.64-0.287-0.64-0.64v0c0-0.353 0.287-0.64 0.64-0.64s0.64 0.287 0.64 0.64v0zM21.76 28.16c0 0.353-0.287 0.64-0.64 0.64s-0.64-0.287-0.64-0.64v0c0-0.353 0.287-0.64 0.64-0.64s0.64 0.287 0.64 0.64v0z">
      </path>
    </symbol>

    <!-- іконка перемикач -->
    <symbol id="ellipse" viewBox="0 0 32 32">
      <path
        d="M31.040 16c0 8.306-6.734 15.040-15.040 15.040s-15.040-6.734-15.040-15.040c0-8.306 6.734-15.040 15.040-15.040s15.040 6.734 15.040 15.040z">
      </path>
    </symbol>
    <symbol id="rectangle" viewBox="0 0 74 32">
      <path d="M16 0h41.6c8.837 0 16 7.163 16 16s-7.163 16-16 16h-41.6c-8.837 0-16-7.163-16-16s7.163-16 16-16z"></path>
      <path
        d="M31.040 16c0 8.306-6.734 15.040-15.040 15.040s-15.040-6.734-15.040-15.040c0-8.306 6.734-15.040 15.040-15.040s15.040 6.734 15.040 15.040z">
      </path>
    <symbol id="card-heart" viewBox="0 0 22 20">
      <path stroke="#F8F8F8" stroke-linecap="round" stroke-linejoin="round" stroke-width="2"
        d="M19.103 3.226a5.042 5.042 0 0 0-7.131 0L11 4.197l-.972-.971a5.043 5.043 0 0 0-7.131 7.132l.971.971L11 18.461l7.132-7.132.971-.972a5.042 5.042 0 0 0 0-7.131v0Z"
        opacity=".5" />
    </symbol>

 <!-- іконка закриття -->
<symbol id="icon-star" viewBox="0 0 32 32">
      <path d="M15.528.894a.533.533 0 0 1 .943 0l3.318 6.289a.537.537 0 0 0 .381.277l7.007 1.212c.422.073.59.59.292.897l-4.956 5.099a.532.532 0 0 0-.145.448l1.012 7.039a.533.533 0 0 1-.763.554l-6.381-3.138a.534.534 0 0 0-.471 0l-6.381 3.138a.533.533 0 0 1-.763-.554l1.012-7.038a.533.533 0 0 0-.145-.448L4.532 9.57a.533.533 0 0 1 .292-.897l7.007-1.212a.531.531 0 0 0 .381-.277L15.53.895z"/>
    </symbol>
    <symbol id="icon-close-black" viewBox="0 0 32 32">
      <path  d="M32 3.224l-3.224-3.224-12.776 12.776-12.776-12.776-3.224 3.224 12.776 12.776-12.776 12.776 3.224 3.224 12.776-12.776 12.776 12.776 3.224-3.224-12.776-12.776 12.776-12.776z"></path>
    </symbol>
  </defs>
</svg>