<svg xmlns="http://www.w3.org/2000/svg" aria-hidden="true" style="position:absolute;width:0;height:0;overflow:hidden">
  <defs>
    <symbol id="icon-burger-menu" viewBox="0 0 31 32">
      <path stroke-linecap="round" stroke-linejoin="round" stroke-width="1.939"
        d="M27.151 13.414H3.878M27.151 8.242H3.878M27.151 18.586H3.878M27.151 23.758H3.878" />
    </symbol>

    <symbol id="icon-x" viewBox="0 0 32 32">
      <path fill="none" stroke="#f8f8f8" style="stroke: var(--color1, #f8f8f8)" stroke-linejoin="round"
        stroke-linecap="round" stroke-miterlimit="4" stroke-width="2" d="M24 8l-16 16M8 8l16 16"></path>
    </symbol>
    <symbol id="icon-basket" viewBox="0 0 31 32">
      <path stroke-linejoin="round" stroke-linecap="round" stroke-miterlimit="4" stroke-width="1.92"
        d="M6.4 18.56h16.814c1.297 0 1.946 0 2.46-0.242 0.46-0.219 0.834-0.556 1.092-0.972l0.006-0.011c0.297-0.486 0.369-1.13 0.512-2.419l0.749-6.739c0.045-0.393 0.067-0.589 0.003-0.742-0.057-0.135-0.155-0.244-0.278-0.313l-0.003-0.002c-0.145-0.079-0.342-0.079-0.739-0.079h-21.256M2.56 3.2h1.597c0.339 0 0.508 0 0.64 0.064 0.118 0.058 0.213 0.148 0.276 0.258l0.002 0.003c0.073 0.128 0.083 0.297 0.105 0.635l1.16 18.56c0.022 0.338 0.032 0.507 0.105 0.635 0.064 0.113 0.159 0.203 0.273 0.259l0.004 0.002c0.133 0.064 0.302 0.064 0.64 0.064h16.959M9.6 28.16h0.013M21.12 28.16h0.013M10.24 28.16c0 0.353-0.287 0.64-0.64 0.64s-0.64-0.287-0.64-0.64v0c0-0.353 0.287-0.64 0.64-0.64s0.64 0.287 0.64 0.64v0zM21.76 28.16c0 0.353-0.287 0.64-0.64 0.64s-0.64-0.287-0.64-0.64v0c0-0.353 0.287-0.64 0.64-0.64s0.64 0.287 0.64 0.64v0z">
      </path>
    </symbol>

    <symbol id="icon-star" viewBox="0 0 34 32">
      <path
        d="M14.89 2.282c0.737-2.268 3.945-2.268 4.682 0l2.080 6.402c0.33 1.014 1.275 1.701 2.341 1.701h6.731c2.384 0 3.376 3.051 1.447 4.453l-5.446 3.957c-0.863 0.627-1.224 1.738-0.894 2.752l2.080 6.402c0.737 2.268-1.859 4.154-3.788 2.752l-5.446-3.957c-0.863-0.627-2.031-0.627-2.894 0l-5.446 3.957c-1.929 1.402-4.525-0.484-3.788-2.752l2.080-6.402c0.33-1.014-0.031-2.125-0.894-2.752l-5.446-3.957c-1.929-1.402-0.938-4.453 1.447-4.453h6.731c1.066 0 2.012-0.687 2.341-1.701l2.080-6.402z">
      </path>
    </symbol>

    <symbol id="icon-strip" viewBox="0 0 4720 32">
      <path stroke-linejoin="miter" stroke-linecap="butt" stroke-miterlimit="4" stroke-width="16" d="M0 16h4720"></path>
    </symbol>

    <symbol id="card-heart" viewBox="0 0 22 20">
      <path stroke="#F8F8F8" stroke-linecap="round" stroke-linejoin="round" stroke-width="2"
        d="M19.103 3.226a5.042 5.042 0 0 0-7.131 0L11 4.197l-.972-.971a5.043 5.043 0 0 0-7.131 7.132l.971.971L11 18.461l7.132-7.132.971-.972a5.042 5.042 0 0 0 0-7.131v0Z"
        opacity=".5" />
    </symbol>
<symbol id="icon-basket" viewBox="0 0 31 32">
<path stroke-linejoin="round" stroke-linecap="round" stroke-miterlimit="4" stroke-width="1.92" d="M6.4 18.56h16.814c1.297 0 1.946 0 2.46-0.242 0.46-0.219 0.834-0.556 1.092-0.972l0.006-0.011c0.297-0.486 0.369-1.13 0.512-2.419l0.749-6.739c0.045-0.393 0.067-0.589 0.003-0.742-0.057-0.135-0.155-0.244-0.278-0.313l-0.003-0.002c-0.145-0.079-0.342-0.079-0.739-0.079h-21.256M2.56 3.2h1.597c0.339 0 0.508 0 0.64 0.064 0.118 0.058 0.213 0.148 0.276 0.258l0.002 0.003c0.073 0.128 0.083 0.297 0.105 0.635l1.16 18.56c0.022 0.338 0.032 0.507 0.105 0.635 0.064 0.113 0.159 0.203 0.273 0.259l0.004 0.002c0.133 0.064 0.302 0.064 0.64 0.064h16.959M9.6 28.16h0.013M21.12 28.16h0.013M10.24 28.16c0 0.353-0.287 0.64-0.64 0.64s-0.64-0.287-0.64-0.64v0c0-0.353 0.287-0.64 0.64-0.64s0.64 0.287 0.64 0.64v0zM21.76 28.16c0 0.353-0.287 0.64-0.64 0.64s-0.64-0.287-0.64-0.64v0c0-0.353 0.287-0.64 0.64-0.64s0.64 0.287 0.64 0.64v0z"></path>
</symbol>
  
  
  <!-- іконка перемикач -->
  <symbol id="ellipse" viewBox="0 0 32 32">
<path d="M31.040 16c0 8.306-6.734 15.040-15.040 15.040s-15.040-6.734-15.040-15.040c0-8.306 6.734-15.040 15.040-15.040s15.040 6.734 15.040 15.040z"></path>
</symbol>
  <symbol id="rectangle" viewBox="0 0 74 32">
<path d="M16 0h41.6c8.837 0 16 7.163 16 16s-7.163 16-16 16h-41.6c-8.837 0-16-7.163-16-16s7.163-16 16-16z"></path>
<path d="M31.040 16c0 8.306-6.734 15.040-15.040 15.040s-15.040-6.734-15.040-15.040c0-8.306 6.734-15.040 15.040-15.040s15.040 6.734 15.040 15.040z"></path>
</symbol>
 <!-- іконка закриття -->
<symbol id="icon-star" viewBox="0 0 32 32">
      <path fill="#d9d9d9" d="M15.528.894a.533.533 0 0 1 .943 0l3.318 6.289a.537.537 0 0 0 .381.277l7.007 1.212c.422.073.59.59.292.897l-4.956 5.099a.532.532 0 0 0-.145.448l1.012 7.039a.533.533 0 0 1-.763.554l-6.381-3.138a.534.534 0 0 0-.471 0l-6.381 3.138a.533.533 0 0 1-.763-.554l1.012-7.038a.533.533 0 0 0-.145-.448L4.532 9.57a.533.533 0 0 1 .292-.897l7.007-1.212a.531.531 0 0 0 .381-.277L15.53.895z" style="fill:var(--color1, #d9d9d9)"/>
    </symbol>
    <symbol id="icon-close-black" viewBox="0 0 32 32">
      <path  d="M32 3.224l-3.224-3.224-12.776 12.776-12.776-12.776-3.224 3.224 12.776 12.776-12.776 12.776 3.224 3.224 12.776-12.776 12.776 12.776 3.224-3.224-12.776-12.776 12.776-12.776z"></path>
    </symbol>
  </defs>
</svg>